<?xml version="1.0" encoding="utf-8"?>
<!-- Generator: Adobe Illustrator 25.0.1, SVG Export Plug-In . SVG Version: 6.00 Build 0)  -->
<svg version="1.1" id="Layer_1" xmlns="http://www.w3.org/2000/svg" xmlns:xlink="http://www.w3.org/1999/xlink" x="0px" y="0px"
	 viewBox="0 0 1717 619" style="enable-background:new 0 0 1717 619;" xml:space="preserve">
<style type="text/css">
	.st0{fill:#FE0000;}
	.st1{fill:#FFFFFF;}
	.st2{font-family:'Doto-SemiBold';}
	.st3{font-size:500px;}
</style>
<path class="st0" d="M524.66,561H59.34C49.76,561,42,553.24,42,543.66V78.34C42,68.76,49.76,61,59.34,61h465.31
	c9.58,0,17.34,7.76,17.34,17.34v465.31C542,553.24,534.24,561,524.66,561z"/>
<path class="st0" d="M1090.66,561H625.34c-9.58,0-17.34-7.76-17.34-17.34V78.34c0-9.58,7.76-17.34,17.34-17.34h465.31
	c9.58,0,17.34,7.76,17.34,17.34v465.31C1108,553.24,1100.24,561,1090.66,561z"/>
<path class="st0" d="M1656.66,561h-465.31c-9.58,0-17.34-7.76-17.34-17.34V78.34c0-9.58,7.76-17.34,17.34-17.34h465.31
	c9.58,0,17.34,7.76,17.34,17.34v465.31C1674,553.24,1666.24,561,1656.66,561z"/>
<text transform="matrix(1 0 0 1 163.6572 485.5142)" class="st1 st2 st3">S</text>
<text transform="matrix(1 0 0 1 737.033 485.1256)" class="st1 st2 st3">B</text>
<text transform="matrix(1 0 0 1 1319.033 485.1256)" class="st1 st2 st3">S</text>
</svg>
