<?xml version="1.0" encoding="utf-8"?>
<!-- Generator: Adobe Illustrator 25.0.1, SVG Export Plug-In . SVG Version: 6.00 Build 0)  -->
<svg version="1.1" id="Layer_1" xmlns="http://www.w3.org/2000/svg" xmlns:xlink="http://www.w3.org/1999/xlink" x="0px" y="0px"
	 viewBox="0 0 1200 630" style="enable-background:new 0 0 1200 630;" xml:space="preserve">
<style type="text/css">
	.st0{fill:#FE0000;}
	.st1{fill:#FFFFFF;}
	.st2{font-family:'Doto-ExtraBold';}
	.st3{font-size:196.1762px;}
	.st4{font-size:60px;}
	.st5{fill:#A3A3A3;}
	.st6{font-family:'Doto-Light';}
	.st7{font-size:30px;}
</style>
<rect width="1200" height="630"/>
<path class="st0" d="M418.3,315H301.6c-21.6,0-39.1-17.5-39.1-39.1V159.1c0-21.6,17.5-39.1,39.1-39.1h116.7
	c21.6,0,39.1,17.5,39.1,39.1v116.7C457.5,297.5,439.9,315,418.3,315z"/>
<path class="st0" d="M644.8,315H528.1c-21.6,0-39.1-17.5-39.1-39.1V159.1c0-21.6,17.5-39.1,39.1-39.1h116.7
	c21.6,0,39.1,17.5,39.1,39.1v116.7C683.9,297.5,666.4,315,644.8,315z"/>
<path class="st0" d="M865.5,315H748.8c-21.6,0-39.1-17.5-39.1-39.1V159.1c0-21.6,17.5-39.1,39.1-39.1h116.7
	c21.6,0,39.1,17.5,39.1,39.1v116.7C904.6,297.5,887.1,315,865.5,315z"/>
<text transform="matrix(1 0 0 1 309.321 285.5788)" class="st1 st2 st3">S</text>
<text transform="matrix(1 0 0 1 534.3209 285.5646)" class="st1 st2 st3">B</text>
<text transform="matrix(1 0 0 1 760.358 285.6335)" class="st1 st2 st3">S</text>
<text transform="matrix(1 0 0 1 284.4523 400.3787)" class="st1 st2 st4">7TH BLOCK SOCIETY</text>
<text transform="matrix(1 0 0 1 405.6429 454.7822)" class="st5 st6 st7">Music • Space • Talk</text>
</svg>
